# xmcd
#
# Track frame offsets:
#	300
#	14556
#	30932
#	45453
#	62454
#	79910
#	98445
#	118123
#	134460
#
# Disc length: 2029 seconds
#
# Revision: 1
# Processed by: cddbd v1.5.2PL0 Copyright (c) Steve Scherf et al.
# Submitted via: audiograbber 1.83.01
#
DISCID=6907e909
DTITLE=Various Artist - SS439
DYEAR=2015
DGENRE=COUNTRY
TTITLE0=LUKE BRYAN - I SEE YOU
TTITLE1=LEE BRICE - DRINKING GLASS
TTITLE2=JASON ALDEAN - JUST GETTING STARTED
TTITLE3=CHRIS YOUNG - LONELY EYES
TTITLE4=BRETT ELDRIDGE - MEAN TO ME
TTITLE5=SAM HUNT - TAKE YOUR TIME
TTITLE6=KENNY CHESNEY - TIL IT'S GONE
TTITLE7=BLAKE SHELTON/ASHLEY MONROE - LONELY TONIGHT
TTITLE8=THOMAS RHETT - MAKE ME WANNA
EXTD=
EXTT0=
EXTT1=
EXTT2=
EXTT3=
EXTT4=
EXTT5=
EXTT6=
EXTT7=
EXTT8=
PLAYORDER=
